<svg width="308" height="423" viewBox="0 0 308 423" fill="none" xmlns="http://www.w3.org/2000/svg">
<g id="Frame" clip-path="url(#clip0_227_75)">
<path id="Vector" d="M75.7993 339.647C53.7433 347.074 48.7618 341.203 32.4845 349.089C27.7327 351.391 17.7316 356.383 10.3392 367.323C9.64394 368.349 -2.58319 386.908 4.15226 400.533C4.99419 402.235 6.35914 404.9 9.03801 405.742C13.6559 407.195 17.7443 401.833 25.647 397.6C30.1947 395.165 34.5383 394.24 43.2319 392.391C52.5186 390.415 61.4673 389.669 74.4981 389.784C98.2253 390.001 111.467 390.115 127.259 395.318C142.235 400.252 141.77 403.912 157.549 410.944C182.52 422.076 204.978 422.407 222.691 422.662C252.305 423.096 250.64 416.727 289.133 411.919C291.55 411.62 297.176 410.938 300.531 406.711C301.979 404.887 303.886 401.304 300.531 383.593C296.315 361.324 291.442 357.186 289.784 355.924C286.665 353.546 283.782 352.825 279.036 351.69C244.058 343.351 242.393 344.779 231.812 340.948C218.94 336.287 208.218 329.402 206.082 332.156C205.355 333.093 206.171 334.253 206.082 337.365C205.941 342.121 203.83 345.551 201.847 348.758C197.484 355.828 191.724 359.743 188.165 362.108C184.644 364.448 179.089 367.559 171.556 369.593C161.976 370.441 149.609 369.988 136.38 365.359C126.009 361.732 108.022 355.445 103.813 341.592C102.671 337.836 103.003 335.044 101.759 333.087C101.459 332.628 88.3645 335.414 75.7993 339.647Z" fill="#C2B8E0" stroke="#C2B8E0" stroke-miterlimit="10"/>
<path id="Vector_2" d="M118.138 300.578C117.105 304.837 122.08 309.376 123.675 310.836C136.189 322.248 156.338 318.736 158.525 318.321C162.053 317.658 170.925 315.886 177.093 309.695C181.36 305.411 183.675 299.673 183.771 299.437C184.472 297.665 184.823 296.778 184.746 296.179C183.643 287.177 134.773 288.733 122.048 296.179C121.002 296.797 118.725 298.175 118.138 300.578Z" fill="#C2B8E0" stroke="#C2B8E0" stroke-miterlimit="10"/>
<path id="Vector_3" d="M169.273 136.282C166.772 138.807 165.873 141.497 164.495 145.616C163.201 149.486 162.792 152.495 162.11 157.551C161.466 162.281 161.294 165.871 161.242 167.101C161.083 170.805 161.447 172.514 161.242 176.218C160.764 185.004 161.128 185.494 160.809 189.243C160.464 193.292 159.233 207.777 151.854 218.87C150.718 220.579 147.925 224.512 149.086 228.146C149.647 229.912 150.967 230.939 151.363 231.238C154.029 233.259 157.428 232.609 160.318 232.055C163.526 231.442 167.162 230.741 170.249 227.496C170.848 226.865 174.822 222.568 174.158 217.404C173.769 214.382 172.2 214.28 171.224 210.403C170.472 207.42 170.957 205.724 171.224 201.452C171.314 200.043 171.231 196.658 171.059 189.894C170.746 177.378 170.223 178.628 170.408 173.776C170.695 166.183 170.95 161.185 174.477 156.684C177.086 153.362 180.25 151.87 182.131 150.984C190.461 147.063 198.574 148.969 201.834 149.734C207.134 150.978 210.853 153.139 214.699 155.377C217.473 156.99 221.032 159.055 224.961 162.702C228.967 166.419 230.172 168.791 231.148 168.402C233.183 167.586 233.942 159.298 230.332 152.775C229.209 150.742 227.481 148.561 220.401 143.984C211.497 138.233 205.265 134.204 195.813 132.266C185.55 130.155 179.727 131.271 178.387 131.615C175.912 132.246 172.328 133.203 169.273 136.282Z" fill="#C2B8E0" stroke="#C2B8E0" stroke-miterlimit="10"/>
<path id="Vector_4" d="M121.289 138.233C125.339 139.738 127.444 140.178 128.669 140.617C139.072 144.366 143.855 169.135 139.308 171.437C135.411 173.407 129.345 156.486 109.993 150.601C106.396 149.505 96.7965 146.732 87.6309 151.035C83.9889 152.744 81.5333 155.052 79.5943 156.894C70.7732 165.303 68.662 174.611 67.5777 174.248C66.6975 173.948 68.8342 167.994 69.759 157.767C70.5181 149.409 69.606 147.694 71.3408 144.309C73.9368 139.234 79.0267 137.136 83.7785 135.173C85.9981 134.255 100.139 128.657 111.511 133.891C113.284 134.707 116.199 136.34 121.289 138.233Z" fill="#C2B8E0" stroke="#C2B8E0" stroke-miterlimit="10"/>
<path id="Vector_5" d="M59.8409 189.02C57.3533 188.822 55.7014 191.303 55.4973 191.628C54.7064 192.852 54.6745 194.127 54.6298 196.62C54.5724 200.088 54.5342 202.032 55.931 203.563C56.7219 204.43 58.2846 205.501 59.624 205.08C60.3192 204.863 60.9315 204.251 62.2327 199.871C64.2036 193.202 63.5913 191.895 63.317 191.405C63.2596 191.309 62.0286 189.192 59.8409 189.02Z" fill="#C2B8E0" stroke="#C2B8E0" stroke-miterlimit="10"/>
<path id="Vector_6" d="M137.356 231.073C134.785 230.544 131.966 231.851 126.443 234.49C122.431 236.409 120.403 237.397 119.114 238.883C118.004 240.164 116.518 241.886 116.837 243.441C117.296 245.704 121.442 246.98 135.238 248.484C146.26 249.689 154.431 250.053 163.902 249.625C174.656 249.134 178.84 247.993 180.511 244.908C181.417 243.231 181.538 241.069 180.837 239.374C179.446 236.014 175.109 235.153 170.089 234.165C165.599 233.279 162.033 232.571 159.017 234.49C157.683 235.338 157.039 236.326 155.107 236.932C152.842 237.639 150.82 237.187 149.73 236.932C145.782 236.001 145.118 233.903 139.308 231.723C138.332 231.36 137.847 231.175 137.356 231.073Z" fill="#C2B8E0" stroke="#C2B8E0" stroke-miterlimit="10"/>
<path id="Vector_7" d="M164.221 267.7H133.771V275.676H164.221V267.7Z" fill="#C2B8E0" stroke="#C2B8E0" stroke-miterlimit="10"/>
<g id="Vector_8">
<path d="M72.7441 100.911C71.7619 101.612 72.1254 103.302 72.2147 106.872C72.2657 109.008 72.068 105.552 72.0042 113.592C71.966 118.291 71.9468 120.643 72.0553 124.774C72.1764 129.384 71.4557 141.465 68.037 173.171C66.7294 154.962 65.7344 142.058 64.9435 133.075C64.3057 125.82 64.2546 118.52 63.5785 111.265C63.4956 110.385 63.4701 108.6 63.4255 105.023C63.4191 104.52 63.4127 103.474 63.6487 102.141C63.8719 100.885 64.0059 100.159 64.4013 99.5466C65.2752 98.1823 66.9526 98.144 70.2119 97.4874C71.5641 97.2132 73.5286 96.7606 75.9141 96.021C72.3869 92.948 68.8598 89.8687 65.3389 86.7957C64.6054 83.1553 63.9995 78.0613 64.5736 72.0365C65.3134 64.2775 67.7053 58.2399 69.5677 54.4593C72.3423 49.1868 76.2266 42.8814 81.6227 36.3338C86.636 30.2516 91.6876 25.5019 96.063 21.8997C100.821 18.1573 107.097 13.9686 114.955 10.3984C119.331 8.40922 123.47 6.93649 127.214 5.8399C127.214 8.08407 127.214 10.3282 127.214 12.566C131.233 11.4758 135.895 10.4876 141.119 9.85008C147.899 9.02764 153.959 9.00214 159.036 9.30816C157.805 10.2517 156.574 11.1889 155.343 12.1325C162.863 12.413 171.212 13.1207 180.205 14.5169C187.138 15.5944 193.561 16.946 199.423 18.4251C201.949 18.8522 205.163 19.6619 208.652 21.2494C214.048 23.6976 217.792 26.9491 220.063 29.2825C218.309 29.053 215.802 28.9255 212.887 29.4993C210.967 29.8754 209.36 30.4556 208.11 31.0167C210.189 31.667 212.913 32.7508 215.821 34.5997C218.532 36.3211 220.573 38.1827 222.008 39.7001C224.394 42.1036 226.779 44.5263 229.171 46.9681C232.902 50.7742 236.576 54.574 240.205 58.3611C239.37 58.2081 237.495 57.9913 235.358 58.7946C232.8 59.7509 231.429 61.5807 230.97 62.2692C232.654 62.7729 234.918 63.6208 237.367 65.0936C238.132 65.5526 239.855 66.6364 241.787 68.3769C243.79 70.1812 244.938 71.7177 248.376 76.614C251.265 80.7199 252.707 82.7728 252.898 83.1043C254.352 85.6545 256.221 89.7411 257.07 95.5875C250.576 87.1846 247.489 83.7865 245.939 82.4604C245.774 82.3201 244.791 81.4849 243.446 80.2927C241.558 78.6223 240.926 77.9975 240.186 77.36C239.038 76.3718 237.291 75.0839 234.758 73.8853C230.753 72.2787 226.754 70.6657 222.748 69.0591C224.222 69.6457 226.524 70.806 228.527 73.0693C231.238 76.1423 231.875 79.534 232.469 82.7154C232.864 84.8448 233.228 88.058 232.749 91.9917C229.669 89.4861 226.358 86.9296 222.806 84.373C218.494 81.2681 214.297 78.4948 210.272 76.0148C206.943 73.4901 204.079 72.6485 201.987 72.3807C200.124 72.1385 197.828 72.215 196.202 70.5701C195.411 69.7732 195.041 68.8296 194.856 68.141C195.105 68.7595 195.519 69.6393 196.202 70.5701C198.243 73.3689 200.941 74.2679 202.771 75.1604C205.438 76.4547 207.702 79.1324 212.23 84.475C214.622 87.2993 216.006 89.3714 218.781 93.5154C220.375 95.8935 221.103 97.1303 221.734 98.7943C222.799 101.6 223.029 104.137 223.048 105.852C219.068 100.548 214.979 97.736 212.205 96.2059C209.96 94.969 207.695 94.0892 204.034 92.6611C201.502 91.6793 199.091 90.8314 194.971 89.5116C191.182 88.3003 186.137 86.7511 180.046 85.0616C175.523 84.0861 171.001 83.1107 166.473 82.1288C164.406 81.7208 162.116 81.3765 159.635 81.1534C156.472 80.8665 153.576 80.8346 151.005 80.9366C149.411 81.1151 147.81 81.2873 146.215 81.4658C148.384 83.4613 150.559 85.4632 152.728 87.4587C155.158 89.6455 158.073 92.7376 160.72 96.8881C162.276 99.3235 163.43 101.657 164.304 103.723C165.274 105.132 166.639 107.529 167.238 110.774C167.57 112.584 167.576 114.191 167.48 115.441C166.096 113.821 164.336 112.036 162.135 110.283C158.079 107.051 154.067 105.189 151.063 104.099C148.811 102.938 146.311 101.778 143.575 100.681C139.843 99.1896 136.329 98.0866 133.153 97.2642C129.964 96.2824 126.347 95.3516 122.348 94.6056C117.819 93.7577 114.873 93.5409 111.275 93.1839C106.836 92.744 100.528 91.9981 92.7145 90.6465C93.9774 91.7367 95.3742 93.0819 96.7774 94.7204C98.3975 96.6075 99.6349 98.4373 100.585 100.031C102.18 101.727 103.768 103.417 105.363 105.112C107.104 107.739 108.839 110.366 110.58 112.999C104.482 110.742 98.3784 108.479 92.2807 106.222C89.4105 105.597 87.1335 104.921 85.6027 104.43C82.7261 103.506 79.824 102.658 76.9729 101.663C74.3897 100.777 73.4649 100.395 72.7441 100.911Z" fill="#845BDC"/>
<path d="M196.202 70.5701C197.828 72.215 200.124 72.1385 201.987 72.3807C204.079 72.6485 206.943 73.4901 210.272 76.0148C214.297 78.4948 218.494 81.2681 222.806 84.373C226.358 86.9296 229.669 89.4861 232.749 91.9917C233.228 88.058 232.864 84.8448 232.469 82.7154C231.875 79.534 231.238 76.1423 228.527 73.0693C226.524 70.806 224.222 69.6457 222.748 69.0591C226.754 70.6657 230.753 72.2787 234.758 73.8853C237.291 75.0839 239.038 76.3718 240.186 77.36C240.926 77.9975 241.558 78.6223 243.446 80.2927C244.791 81.4849 245.774 82.3201 245.939 82.4604C247.489 83.7865 250.576 87.1846 257.07 95.5875C256.221 89.7411 254.352 85.6545 252.898 83.1043C252.707 82.7728 251.265 80.7199 248.376 76.614C244.938 71.7177 243.79 70.1812 241.787 68.3769C239.855 66.6364 238.132 65.5526 237.367 65.0936C234.918 63.6208 232.654 62.7729 230.97 62.2692C231.429 61.5807 232.8 59.7509 235.358 58.7946C237.495 57.9913 239.37 58.2081 240.205 58.3611C236.576 54.574 232.902 50.7742 229.171 46.9681C226.779 44.5263 224.394 42.1036 222.008 39.7001C220.573 38.1827 218.532 36.3211 215.821 34.5997C212.913 32.7508 210.189 31.667 208.11 31.0167C209.36 30.4556 210.967 29.8754 212.887 29.4993C215.802 28.9255 218.309 29.053 220.063 29.2825C217.792 26.9491 214.048 23.6976 208.652 21.2494C205.163 19.6619 201.949 18.8522 199.423 18.4251C193.561 16.946 187.138 15.5944 180.205 14.5169C171.212 13.1207 162.863 12.413 155.343 12.1325C156.574 11.1889 157.805 10.2517 159.036 9.30816C153.959 9.00214 147.899 9.02764 141.119 9.85008C135.895 10.4876 131.233 11.4758 127.214 12.566C127.214 10.3282 127.214 8.08407 127.214 5.8399C123.47 6.93649 119.331 8.40922 114.955 10.3984C107.097 13.9686 100.821 18.1573 96.063 21.8997C91.6876 25.5019 86.636 30.2516 81.6227 36.3338C76.2266 42.8814 72.3423 49.1868 69.5677 54.4593C67.7053 58.2399 65.3134 64.2775 64.5736 72.0365C63.9995 78.0613 64.6054 83.1553 65.3389 86.7957C68.8598 89.8687 72.3869 92.948 75.9141 96.021C73.5286 96.7606 71.5641 97.2132 70.2119 97.4874C66.9526 98.144 65.2752 98.1823 64.4013 99.5466C64.0059 100.159 63.8719 100.885 63.6487 102.141C63.4127 103.474 63.4191 104.52 63.4255 105.023C63.4701 108.6 63.4956 110.385 63.5785 111.265C64.2546 118.52 64.3057 125.82 64.9435 133.075C65.7344 142.058 66.7294 154.962 68.037 173.171C71.4557 141.465 72.1764 129.384 72.0553 124.774C71.9468 120.643 71.966 118.291 72.0042 113.592C72.068 105.552 72.2657 109.008 72.2147 106.872C72.1254 103.302 71.7619 101.612 72.7441 100.911C73.4649 100.395 74.3897 100.777 76.9729 101.663C79.824 102.658 82.7261 103.506 85.6027 104.43C87.1335 104.921 89.4105 105.597 92.2807 106.222C98.3784 108.479 104.482 110.742 110.58 112.999C108.839 110.366 107.104 107.739 105.363 105.112C103.768 103.417 102.18 101.727 100.585 100.031C99.6349 98.4373 98.3975 96.6075 96.7774 94.7204C95.3742 93.0819 93.9774 91.7367 92.7145 90.6465C100.528 91.9981 106.836 92.744 111.275 93.1839C114.873 93.5409 117.819 93.7577 122.348 94.6056C126.347 95.3516 129.964 96.2824 133.153 97.2642C136.329 98.0866 139.843 99.1896 143.575 100.681C146.311 101.778 148.811 102.938 151.063 104.099C154.067 105.189 158.079 107.051 162.135 110.283C164.336 112.036 166.096 113.821 167.48 115.441C167.576 114.191 167.57 112.584 167.238 110.774C166.639 107.529 165.274 105.132 164.304 103.723C163.43 101.657 162.276 99.3235 160.72 96.8881C158.073 92.7376 155.158 89.6455 152.728 87.4587C150.559 85.4632 148.384 83.4613 146.215 81.4658C147.81 81.2873 149.411 81.1151 151.005 80.9366C153.576 80.8346 156.472 80.8665 159.635 81.1534C162.116 81.3765 164.406 81.7208 166.473 82.1288C171.001 83.1107 175.523 84.0861 180.046 85.0616C186.137 86.7511 191.182 88.3003 194.971 89.5116C199.091 90.8314 201.502 91.6793 204.034 92.6611C207.695 94.0892 209.96 94.969 212.205 96.2059C214.979 97.736 219.068 100.548 223.048 105.852C223.029 104.137 222.799 101.6 221.734 98.7943C221.103 97.1303 220.375 95.8935 218.781 93.5154C216.006 89.3714 214.622 87.2993 212.23 84.475C207.702 79.1324 205.438 76.4547 202.771 75.1604C200.941 74.2679 198.243 73.3689 196.202 70.5701ZM196.202 70.5701C195.411 69.7732 195.041 68.8296 194.856 68.141C195.105 68.7595 195.519 69.6393 196.202 70.5701Z" stroke="#845BDC" stroke-miterlimit="10"/>
</g>
<path id="Vector_9" d="M236.742 92.4699L236.774 110.863L234.363 146.253L234.388 161.045L239.159 157.984L245.353 126.744C246.035 122.173 246.724 117.602 247.406 113.031C247.547 111.335 247.547 109.142 247.043 106.649C246.22 102.569 244.428 99.5148 243.108 97.6532C240.984 95.919 238.86 94.1913 236.742 92.4699Z" fill="#845BDC" stroke="#845BDC" stroke-miterlimit="10"/>
<path id="Vector_10" d="M128.235 132.591C128.299 132.706 129.747 135.37 128.452 137.8C127.47 139.642 125.499 140.254 124.976 140.407C121.429 141.44 119.038 138.902 113.361 136.875C108.992 135.313 105.388 135.039 103.436 134.867C101.21 134.669 95.5337 134.216 89.4616 136.346C81.3739 139.183 77.2408 144.978 76.3223 144.143C75.7292 143.608 77.1005 140.923 78.644 139.011C81.2272 135.804 84.4993 134.478 87.1845 133.49C98.2636 129.422 106.912 128.415 109.381 128.153C110.88 127.994 115.912 127.663 121.94 129.103C125.607 129.97 127.317 130.959 128.235 132.591Z" fill="#6024E0" stroke="#6024E0" stroke-miterlimit="10"/>
<path id="Vector_11" d="M173.246 131.889C169.649 133.949 169.33 135.861 169.273 136.282C168.967 138.667 170.899 141.357 172.966 141.708C174.241 141.924 175.332 141.204 175.862 140.872C178.783 139.049 182.699 138.367 190.525 136.996C193.421 136.486 197.178 135.829 202.07 136.435C204.283 136.709 210.355 137.493 216.274 141.555C219.482 143.754 221.326 146.03 221.753 145.68C222.244 145.278 220.471 141.676 217.658 138.934C215.043 136.391 212.205 135.262 208.703 134.114C203.109 132.285 196.661 130.225 186.858 129.588C180.352 129.154 176.557 129.996 173.246 131.889Z" fill="#6024E0" stroke="#6024E0" stroke-miterlimit="10"/>
<g id="lineas_2_">
<g id="Group">
<g id="Group_2">
<path id="Vector_12" d="M70.3905 96.7925C69.1659 116.888 68.139 136.99 67.2971 157.098C67.0611 162.817 66.8378 168.529 66.6274 174.248C66.5827 175.479 68.4962 175.479 68.5408 174.248C69.2743 154.133 70.1928 134.025 71.309 113.923C71.6279 108.211 71.9596 102.499 72.304 96.7861C72.3806 95.5684 70.4671 95.5684 70.3905 96.7925Z" fill="#6024E0"/>
</g>
</g>
<g id="Group_3">
<g id="Group_4">
<path id="Vector_13" d="M67.7627 165.992C65.6069 162.326 62.7111 158.762 58.7056 157.053C55.6759 155.759 52.3337 155.785 49.304 157.073C42.5494 159.942 38.7033 167.465 37.8359 174.427C37.3575 178.271 37.8168 182.16 39.1371 185.794C40.1767 188.657 41.2355 191.513 42.3964 194.331C43.7485 197.608 45.2219 200.847 46.9759 203.926C48.5705 206.725 50.4074 209.479 52.7483 211.71C54.7319 213.591 57.1493 215.089 59.9238 215.313C63.03 215.561 65.8939 213.986 68.1709 212.016C68.9235 211.36 69.6252 210.646 70.2885 209.906C71.1113 208.994 69.7591 207.636 68.9363 208.555C66.9718 210.748 64.4588 213.005 61.4036 213.387C59.152 213.668 56.9771 212.73 55.2103 211.341C52.9396 209.549 51.1856 207.158 49.6676 204.723C47.9263 201.93 46.4721 198.972 45.1518 195.963C43.9335 193.19 42.8364 190.359 41.7904 187.515C40.6615 184.462 39.6728 181.497 39.5708 178.195C39.3667 171.545 42.0711 164.073 47.6967 160.152C50.0056 158.545 52.8376 157.614 55.6568 158.125C59.1839 158.762 62.035 161.223 64.1462 164.003C64.8606 164.946 65.5048 165.947 66.1044 166.967C66.7358 168.013 68.3878 167.057 67.7627 165.992Z" fill="#6024E0"/>
</g>
</g>
<g id="Group_5">
<g id="Group_6">
<path id="Vector_14" d="M49.3742 191.481C47.8562 193.967 48.0029 197.015 49.7314 199.355C51.2239 201.382 53.7497 202.906 56.3392 202.625C59.6304 202.268 61.4865 199.195 61.7544 196.135C62.1116 192.131 60.7913 188.038 58.5206 184.761C55.9119 180.993 52.002 178.067 47.4735 177.111C46.2743 176.856 45.7577 178.698 46.9632 178.953C53.7433 180.381 59.2669 186.725 59.8473 193.63C60.0514 196.052 59.7452 199.425 57.1238 200.496C55.2868 201.248 53.1692 200.266 51.8617 198.928C50.1077 197.13 49.7059 194.605 51.0262 192.444C51.664 191.398 50.012 190.435 49.3742 191.481Z" fill="#6024E0"/>
</g>
</g>
<g id="Group_7">
<g id="Group_8">
<path id="Vector_15" d="M66.1745 212.456C66.0597 223.582 67.3481 234.777 70.5564 245.449C73.3054 254.585 77.4576 263.326 83.0514 271.072C88.2114 278.226 94.5195 284.486 101.714 289.6C108.622 294.502 116.308 298.289 124.37 300.878C132.336 303.441 140.698 304.818 149.066 305.009C157.377 305.2 165.739 304.199 173.757 302.013C181.8 299.819 189.53 296.409 196.508 291.85C203.645 287.183 209.947 281.337 215.126 274.566C220.675 267.311 224.821 259.042 227.557 250.339C230.721 240.273 231.99 229.657 231.863 219.125C231.824 216.243 231.684 213.362 231.448 210.486C231.346 209.269 229.433 209.256 229.535 210.486C230.415 221.305 229.981 232.278 227.583 242.893C225.548 251.901 222.104 260.572 217.135 268.369C212.639 275.433 206.911 281.707 200.29 286.826C193.848 291.812 186.564 295.707 178.885 298.41C171.205 301.114 163.137 302.657 155.005 303.026C146.86 303.396 138.683 302.618 130.761 300.687C122.718 298.723 114.981 295.593 107.882 291.334C100.585 286.96 94.022 281.407 88.5048 274.93C82.5985 267.999 77.9488 260.011 74.6703 251.525C70.8944 241.745 68.8789 231.353 68.2857 220.91C68.1262 218.092 68.0688 215.268 68.0943 212.45C68.1007 211.226 66.1872 211.226 66.1745 212.456Z" fill="#6024E0"/>
</g>
</g>
<g id="Group_9">
<g id="Group_10">
<path id="Vector_16" d="M227.187 209.071C229.758 211.768 232.819 214.273 236.455 215.338C239.255 216.154 242.17 215.899 244.817 214.707C247.521 213.489 249.786 211.373 251.642 209.096C253.887 206.349 255.685 203.269 257.216 200.075C260.303 193.655 262.497 186.744 263.875 179.763C264.162 178.322 264.494 176.824 264.602 175.357C264.749 173.368 264.137 171.099 263.48 169.237C262.134 165.444 259.717 162.052 256.54 159.578C253.504 157.213 249.786 155.676 245.908 155.619C241.825 155.555 237.973 157.251 235.039 160.044C234.184 160.86 233.425 161.759 232.717 162.702C231.977 163.684 233.636 164.64 234.369 163.665C236.71 160.566 240.02 158.176 243.93 157.634C247.394 157.155 250.902 158.163 253.829 159.993C256.961 161.95 259.449 164.863 261.011 168.198C261.821 169.932 262.37 171.832 262.593 173.732C262.772 175.23 262.529 176.569 262.261 178.054C261.094 184.5 259.2 190.901 256.572 196.9C255.213 200.005 253.644 203.033 251.712 205.819C250.104 208.14 248.185 210.372 245.818 211.946C243.733 213.33 241.366 214.101 238.866 213.865C235.811 213.578 233.03 211.825 230.766 209.849C229.987 209.173 229.254 208.453 228.546 207.707C227.691 206.827 226.339 208.178 227.187 209.071Z" fill="#6024E0"/>
</g>
</g>
<g id="Group_11">
<g id="Group_12">
<path id="Vector_17" d="M231.78 91.7814C230.753 111.628 230.383 131.513 230.67 151.386C230.753 156.99 230.887 162.587 231.072 168.191C231.11 169.422 233.023 169.422 232.985 168.191C232.328 148.325 232.328 128.44 232.985 108.581C233.17 102.983 233.406 97.3854 233.7 91.7877C233.757 90.5509 231.844 90.5573 231.78 91.7814Z" fill="#6024E0"/>
</g>
</g>
<g id="Group_13">
<g id="Group_14">
<path id="Vector_18" d="M251.941 177.723C249.02 179.259 246.182 180.993 243.65 183.11C241.934 184.545 240.339 186.202 239.204 188.14C237.635 190.824 237.188 194.05 238.719 196.856C239.95 199.106 242.24 200.751 244.689 201.427C246.781 202.001 249.422 201.892 250.927 200.107C253.026 197.614 251.839 193.929 250.653 191.315C250.417 190.799 250.168 190.295 249.9 189.798C249.32 188.714 247.668 189.677 248.248 190.761C249.109 192.374 249.779 193.897 250.092 195.753C250.124 195.944 250.104 195.823 250.098 195.816C250.104 195.899 250.117 195.976 250.124 196.059C250.136 196.212 250.149 196.365 250.149 196.524C250.155 196.671 250.149 196.817 250.143 196.958C250.136 197.066 250.079 197.544 250.13 197.225C250.092 197.474 250.041 197.716 249.964 197.959C249.932 198.067 249.792 198.386 249.919 198.105C249.868 198.214 249.817 198.322 249.76 198.43C249.709 198.526 249.645 198.615 249.588 198.704C249.422 198.959 249.684 198.634 249.499 198.813C249.422 198.889 249.358 198.966 249.282 199.036C249.231 199.081 248.969 199.297 249.109 199.189C249.256 199.081 248.982 199.272 248.931 199.304C248.835 199.361 248.74 199.418 248.637 199.469C248.593 199.495 248.542 199.514 248.497 199.54C248.325 199.629 248.676 199.476 248.535 199.521C248.427 199.559 248.319 199.597 248.21 199.635C247.993 199.699 247.77 199.744 247.54 199.788C247.381 199.82 247.77 199.769 247.604 199.782C247.54 199.788 247.477 199.795 247.406 199.801C247.292 199.807 247.177 199.814 247.062 199.82C246.813 199.827 246.565 199.814 246.322 199.795C246.15 199.782 245.965 199.75 246.156 199.782C246.022 199.763 245.895 199.737 245.761 199.712C245.231 199.61 244.728 199.438 244.224 199.253C244.039 199.183 244.23 199.259 244.217 199.253C244.154 199.227 244.096 199.202 244.032 199.17C243.905 199.106 243.771 199.049 243.643 198.979C243.395 198.851 243.152 198.711 242.916 198.564C242.801 198.494 242.687 198.418 242.578 198.341C242.527 198.309 242.482 198.271 242.438 198.239C242.406 198.214 242.176 198.041 242.297 198.137C242.4 198.214 242.138 198.003 242.074 197.952C241.953 197.85 241.838 197.748 241.723 197.64C241.526 197.448 241.334 197.251 241.149 197.047C241.06 196.945 240.971 196.836 240.888 196.728C241.054 196.938 240.799 196.601 240.741 196.518C240.582 196.282 240.429 196.033 240.295 195.784C240.231 195.663 240.174 195.536 240.11 195.408C240.027 195.23 240.103 195.402 240.097 195.389C240.065 195.313 240.04 195.243 240.008 195.166C239.906 194.892 239.823 194.605 239.759 194.324C239.727 194.184 239.702 194.044 239.676 193.897C239.638 193.7 239.676 193.891 239.67 193.872C239.663 193.789 239.65 193.706 239.644 193.617C239.619 193.304 239.619 192.986 239.638 192.673C239.644 192.514 239.663 192.361 239.682 192.201C239.65 192.463 239.714 192.01 239.733 191.908C239.804 191.564 239.893 191.22 240.001 190.882C240.161 190.391 240.18 190.359 240.365 189.97C241.213 188.191 242.368 186.852 243.796 185.501C245.818 183.595 248.153 182.033 250.551 180.643C251.316 180.196 252.094 179.776 252.879 179.361C253.995 178.8 253.032 177.149 251.941 177.723Z" fill="#6024E0"/>
</g>
</g>
<g id="Group_15">
<g id="Group_16">
<path id="Vector_19" d="M115.804 253.011C115.581 253.776 115.325 254.534 115.045 255.287C114.975 255.472 114.898 255.663 114.828 255.848C114.796 255.924 114.764 256.007 114.732 256.084C114.713 256.135 114.688 256.192 114.668 256.243C114.707 256.147 114.707 256.147 114.662 256.249C114.503 256.619 114.337 256.983 114.165 257.34C113.948 257.792 114.024 258.392 114.509 258.647C114.936 258.87 115.587 258.787 115.817 258.302C116.55 256.759 117.169 255.159 117.647 253.514C117.787 253.036 117.475 252.45 116.977 252.335C116.474 252.227 115.957 252.494 115.804 253.011Z" fill="#6024E0"/>
</g>
</g>
<g id="Group_17">
<g id="Group_18">
<path id="Vector_20" d="M184.268 253.61C166.505 253.954 148.767 255.988 130.984 255.217C125.926 254.993 120.881 254.541 115.88 253.757C114.675 253.565 114.158 255.408 115.37 255.599C133.178 258.411 151.222 257.066 169.126 256.122C174.171 255.854 179.216 255.625 184.268 255.529C185.499 255.497 185.499 253.584 184.268 253.61Z" fill="#6024E0"/>
</g>
</g>
<g id="Group_19">
<g id="Group_20">
<path id="Vector_21" d="M183.203 254.515C167.085 262.886 148.314 262.504 130.908 259.138C126.035 258.194 121.206 257.015 116.422 255.708C115.236 255.382 114.726 257.225 115.912 257.55C124.689 259.96 133.618 261.905 142.688 262.803C151.682 263.696 160.86 263.511 169.694 261.477C174.72 260.323 179.593 258.545 184.166 256.167C185.263 255.599 184.294 253.948 183.203 254.515Z" fill="#6024E0"/>
</g>
</g>
<g id="Group_21">
<g id="Group_22">
<path id="Vector_22" d="M183.49 253.916C183.573 255.312 183.987 256.677 184.746 257.862C185.014 258.283 185.608 258.494 186.054 258.207C186.475 257.933 186.685 257.352 186.398 256.9C186.239 256.645 186.086 256.383 185.958 256.109C185.939 256.065 185.901 255.918 185.856 255.892C185.875 255.931 185.888 255.969 185.907 256.007C185.895 255.969 185.875 255.931 185.863 255.892C185.805 255.752 185.754 255.612 185.71 255.465C185.62 255.185 185.544 254.904 185.493 254.617C185.48 254.541 185.461 254.458 185.448 254.381C185.448 254.362 185.442 254.343 185.442 254.324C185.429 254.222 185.429 254.248 185.448 254.401C185.461 254.248 185.416 254.075 185.403 253.922C185.372 253.425 184.982 252.941 184.447 252.966C183.956 252.985 183.458 253.38 183.49 253.916Z" fill="#6024E0"/>
</g>
</g>
<g id="Group_23">
<g id="Group_24">
<path id="Vector_23" d="M170.631 216.416C171.958 218.22 172.908 220.311 172.832 222.593C172.768 224.461 171.945 226.221 170.631 227.534C169.12 229.045 167.098 229.9 165.019 230.25C164.4 230.352 163.787 230.346 163.201 230.588C162.608 230.83 162.027 231.105 161.466 231.411C160.324 232.023 159.246 232.73 158.136 233.393C156.28 234.509 153.831 235.995 151.605 235.236C149.698 234.586 147.784 233.942 145.896 233.228C142.018 231.761 138.032 229.97 135.002 227.075C133.612 225.743 132.426 224.155 131.762 222.338C131.596 221.886 131.456 221.42 131.348 220.955C131.316 220.834 131.265 220.7 131.265 220.572C131.258 220.273 131.22 220.789 131.316 220.458C131.411 220.126 131.533 219.807 131.641 219.482C132.017 218.347 132.4 217.212 132.789 216.078C134.211 211.895 135.691 207.726 137.05 203.524C139.62 195.542 141.642 187.382 141.987 178.972C142.414 168.644 140.392 158.386 137.26 148.587C136.763 147.018 136.227 145.463 135.678 143.914C135.27 142.76 133.421 143.257 133.835 144.424C137.566 154.918 140.284 165.909 140.124 177.111C140.003 185.864 137.987 194.344 135.328 202.644C133.918 207.05 132.368 211.411 130.876 215.797C130.474 216.97 130.085 218.143 129.696 219.316C129.504 219.897 129.294 220.381 129.409 220.999C129.517 221.573 129.67 222.141 129.862 222.689C130.557 224.684 131.718 226.47 133.185 227.987C136.24 231.143 140.335 233.106 144.359 234.7C146.324 235.478 148.327 236.167 150.329 236.843C150.782 236.996 151.229 237.174 151.688 237.308C152.345 237.499 153.078 237.397 153.748 237.302C154.973 237.117 156.134 236.664 157.231 236.116C158.411 235.523 159.527 234.809 160.649 234.12C161.689 233.483 162.92 232.571 164.126 232.297C165.344 232.023 166.543 231.972 167.736 231.532C168.788 231.149 169.802 230.646 170.708 229.983C174.28 227.362 175.664 222.842 174.063 218.679C173.616 217.525 173.017 216.46 172.283 215.466C171.563 214.471 169.904 215.421 170.631 216.416Z" fill="#6024E0"/>
</g>
</g>
<g id="Group_25">
<g id="Group_26">
<path id="Vector_24" d="M126.526 133.783C126.564 134.529 126.57 135.281 126.487 136.027C126.475 136.11 126.481 136.136 126.436 136.352C126.411 136.467 126.392 136.588 126.36 136.703C126.328 136.837 126.283 136.971 126.245 137.105C126.232 137.156 126.207 137.207 126.194 137.258C126.105 137.5 126.283 137.085 126.175 137.309C126.086 137.5 125.977 137.685 125.856 137.857C126.009 137.64 125.792 137.921 125.754 137.965C125.677 138.042 125.601 138.112 125.518 138.176C125.722 138.016 125.282 138.303 125.173 138.354C125.091 138.392 125.32 138.316 125.071 138.386C124.95 138.418 124.835 138.456 124.714 138.482C124.376 138.558 124.612 138.526 124.255 138.539C123.993 138.552 123.726 138.552 123.464 138.533C122.826 138.494 122.584 138.443 121.901 138.31C120.492 138.016 119.108 137.596 117.73 137.181C114.101 136.078 110.472 134.969 106.728 134.344C102.129 133.573 97.4535 133.496 92.8739 134.44C86.4 135.778 80.6021 139.145 75.659 143.467C76.2011 143.69 76.7497 143.92 77.2918 144.143C77.2854 143.984 77.2918 143.831 77.2982 143.671C77.2982 143.595 77.3109 143.512 77.3173 143.435C77.3428 143.174 77.2791 143.639 77.3237 143.378C77.3811 143.034 77.464 142.702 77.5788 142.371C77.6936 142.046 77.7064 142.014 77.9169 141.612C78.0955 141.274 78.2996 140.955 78.5228 140.643C78.6887 140.401 78.8545 140.203 79.1351 139.891C79.4222 139.572 79.7283 139.266 80.0472 138.973C80.7233 138.348 81.342 137.87 82.0883 137.36C85.7813 134.822 90.0611 133.171 94.3345 131.896C99.08 130.474 103.985 129.524 108.922 129.135C113.106 128.81 117.494 128.765 121.525 129.958C123.113 130.429 124.625 131.105 125.709 132.24C126.117 132.667 126.513 133.298 126.672 133.789C126.927 134.599 126.966 134.988 126.889 135.9C126.787 137.124 128.701 137.117 128.803 135.9C129.09 132.47 126.762 130.002 123.77 128.74C119.841 127.076 115.287 126.923 111.077 127.095C105.847 127.312 100.617 128.185 95.5655 129.556C90.8903 130.825 86.1831 132.514 82.0628 135.096C79.2372 136.862 76.0225 139.432 75.474 142.945C75.4102 143.34 75.3783 143.741 75.3847 144.143C75.4038 145.004 76.3989 145.361 77.0175 144.819C81.5142 140.885 86.7572 137.812 92.6124 136.454C97.1282 135.402 101.835 135.434 106.389 136.218C110.185 136.869 113.858 138.01 117.539 139.119C119.899 139.833 122.699 140.872 125.199 140.337C128.216 139.693 128.592 136.359 128.465 133.789C128.375 132.559 126.462 132.553 126.526 133.783Z" fill="#6024E0"/>
</g>
</g>
<g id="Group_27">
<g id="Group_28">
<path id="Vector_25" d="M234.076 93.3816C235.6 93.7322 236.742 94.4208 237.775 95.6194C238.79 96.7988 239.498 98.4565 239.95 100.05C241.213 104.494 241.143 109.301 240.894 113.879C240.276 125.233 237.909 136.416 236.002 147.599C235.23 152.112 234.286 156.779 234.376 161.382C234.401 162.613 236.315 162.613 236.289 161.382C236.213 157.359 236.978 153.292 237.641 149.339C238.573 143.767 239.625 138.214 240.537 132.635C241.5 126.751 242.361 120.834 242.75 114.886C243.063 110.047 243.159 104.998 241.985 100.254C241.016 96.3334 238.796 92.5018 234.586 91.5391C233.387 91.2649 232.877 93.1074 234.076 93.3816Z" fill="#6024E0"/>
</g>
</g>
<g id="Group_29">
<g id="Group_30">
<path id="Vector_26" d="M73.299 96.9136C83.6828 99.2279 93.7414 102.913 103.149 107.892C105.803 109.295 108.399 110.799 110.937 112.4C111.747 112.91 112.742 111.896 112.245 111.093C107.282 103.002 101.229 95.6003 94.2771 89.1483C94.0539 89.6902 93.8243 90.2385 93.601 90.7804C104.246 90.4871 114.911 91.5136 125.307 93.8215C135.704 96.1294 145.826 99.6742 155.362 104.405C160.726 107.07 165.899 110.098 170.848 113.471C171.735 114.076 172.487 112.942 172.156 112.164C167.429 101.096 160.248 91.0864 151.292 83.0406C148.735 80.7454 146.037 78.6096 143.218 76.646C143.058 77.2389 142.899 77.8318 142.733 78.4311C154.271 79.2535 165.835 80.2609 177.188 82.5433C188.357 84.7874 199.397 88.2812 209.188 94.1976C214.75 97.5575 219.801 101.689 224.151 106.521C224.77 107.21 226.09 106.49 225.752 105.591C221.351 93.9681 214.029 83.506 204.576 75.4282C201.898 73.1395 199.059 71.0419 196.087 69.1548C195.838 69.7349 195.596 70.3215 195.347 70.9017C206.133 73.3498 216.274 78.4566 224.649 85.68C227.022 87.7265 229.254 89.9452 231.321 92.2978C232.137 93.2222 233.483 91.8642 232.673 90.9462C225.178 82.4221 215.585 75.8363 204.978 71.807C202.006 70.6785 198.957 69.7604 195.851 69.0591C194.792 68.8169 194.186 70.2195 195.111 70.806C205.297 77.2708 213.768 86.3112 219.61 96.8626C221.256 99.8399 222.691 102.926 223.896 106.107C224.432 105.795 224.961 105.489 225.497 105.176C217.646 96.4482 207.568 90.2066 196.648 86.0498C185.627 81.8484 173.935 79.6934 162.263 78.2972C155.77 77.5194 149.245 76.9966 142.726 76.5312C141.7 76.4547 141.534 77.819 142.242 78.3163C151.918 85.068 160.063 93.9618 165.988 104.156C167.672 107.057 169.177 110.06 170.491 113.146C170.925 112.712 171.365 112.272 171.799 111.839C162.901 105.769 153.257 100.828 143.154 97.0985C133.051 93.3625 122.495 90.876 111.792 89.6647C105.752 88.9825 99.6668 88.7211 93.5883 88.8869C92.791 88.906 92.2807 89.9388 92.9122 90.519C99.7561 96.869 105.701 104.118 110.58 112.081C111.014 111.647 111.454 111.207 111.888 110.774C102.786 105.049 92.9249 100.541 82.6368 97.4173C79.7219 96.5311 76.7688 95.7596 73.7965 95.0966C72.6038 94.8033 72.0935 96.6458 73.299 96.9136Z" fill="#6024E0"/>
</g>
</g>
<g id="Group_31">
<g id="Group_32">
<path id="Vector_27" d="M234.369 91.3669C234.465 84.322 232.443 77.3281 228.603 71.4181C228.246 71.8835 227.883 72.3553 227.525 72.8207C237.584 76.8691 246.565 83.4613 253.536 91.7495C255.52 94.1084 257.318 96.6076 258.951 99.2215C259.519 100.133 260.979 99.553 260.699 98.482C258.269 89.212 253.204 80.994 247.202 73.6176C245.493 71.5137 243.701 69.4735 241.87 67.4653C241.041 66.5536 239.689 67.9115 240.518 68.8169C246.743 75.6386 252.547 83.0023 256.272 91.5199C257.331 93.9362 258.186 96.4418 258.856 98.992C259.436 98.7433 260.023 98.5011 260.603 98.2524C254.671 88.7402 246.386 80.7454 236.672 75.1541C233.897 73.5538 231.008 72.1704 228.036 70.9782C227.258 70.6658 226.524 71.7241 226.958 72.3808C230.625 78.023 232.558 84.6344 232.462 91.3669C232.443 92.5974 234.357 92.5974 234.369 91.3669Z" fill="#6024E0"/>
</g>
</g>
<g id="Group_33">
<g id="Group_34">
<path id="Vector_28" d="M62.9344 90.1556C62.5708 90.927 62.405 91.7877 62.8642 92.5591C63.2788 93.2541 64.0506 93.6175 64.7841 93.8725C66.436 94.4463 68.2156 94.5674 69.8803 95.1093C70.0015 95.1476 70.1227 95.1922 70.2438 95.2368C70.314 95.2623 70.5691 95.3643 70.5181 95.3388C70.4161 95.2942 70.5373 95.3516 70.5564 95.358C70.6265 95.3898 70.7031 95.4281 70.7732 95.46C70.8689 95.5046 70.9582 95.5556 71.0475 95.6066C71.1496 95.664 71.2452 95.7277 71.3409 95.7915C71.3728 95.8106 71.4047 95.8361 71.4302 95.8553C71.6279 95.9955 71.2899 95.7277 71.4685 95.8871C71.5386 95.9509 71.6152 96.0146 71.679 96.0848C71.7236 96.1294 71.9468 96.4163 71.8001 96.2187C72.1063 96.6331 72.6293 96.8435 73.1077 96.5629C73.5159 96.3207 73.7583 95.6704 73.4521 95.256C72.3806 93.796 70.5947 93.2541 68.898 92.8715C68.0497 92.6803 67.195 92.5273 66.3467 92.3296C65.9895 92.2467 65.6387 92.1511 65.2943 92.03C65.2178 92.0045 65.1476 91.9726 65.0711 91.9471C64.9116 91.8897 65.2242 92.03 65.0328 91.928C64.8925 91.8515 64.7585 91.775 64.6246 91.6984C64.4715 91.6092 64.682 91.8323 64.6118 91.6857C64.5927 91.6538 64.4205 91.4817 64.5353 91.6219C64.6501 91.7558 64.5034 91.5454 64.4779 91.5199C64.4014 91.4307 64.5608 91.7303 64.4907 91.5263C64.4141 91.3159 64.5544 91.6411 64.4907 91.5391C64.4396 91.4498 64.5417 91.284 64.4779 91.5263C64.5034 91.437 64.5162 91.3478 64.5417 91.2585C64.5481 91.2267 64.5608 91.1948 64.5736 91.1629C64.6501 90.9461 64.4843 91.3542 64.5927 91.131C64.8159 90.6656 64.7203 90.0982 64.2483 89.8241C63.8273 89.569 63.1576 89.6902 62.9344 90.1556Z" fill="#6024E0"/>
</g>
</g>
<g id="Group_35">
<g id="Group_36">
<path id="Vector_29" d="M69.9951 94.6567C67.4183 96.0402 64.0569 95.6385 61.8118 97.736C60.3129 99.1387 60.466 101.166 60.4086 103.06C60.3256 105.744 60.332 108.434 60.4022 111.118C60.6764 121.803 61.9585 132.425 62.7877 143.072C63.2596 149.116 63.5786 155.179 63.4956 161.249C63.4765 162.479 65.39 162.479 65.4091 161.249C65.5494 150.863 64.5034 140.522 63.5722 130.194C63.1066 124.978 62.6665 119.763 62.4305 114.529C62.3157 111.947 62.2519 109.365 62.2583 106.776C62.2583 105.482 62.2838 104.194 62.322 102.9C62.3539 101.937 62.2009 100.726 62.6091 99.8272C63.2022 98.5075 64.9563 98.0931 66.2192 97.7679C67.8201 97.3599 69.4848 97.0985 70.9582 96.3079C72.0489 95.7278 71.0794 94.0702 69.9951 94.6567Z" fill="#6024E0"/>
</g>
</g>
<g id="Group_37">
<g id="Group_38">
<path id="Vector_30" d="M169.636 135.319C169.515 137.666 169.751 140.707 172.296 141.689C174.535 142.549 177.309 141.606 179.484 140.968C183.056 139.929 186.583 138.756 190.238 138.023C194.639 137.136 199.206 136.856 203.645 137.615C210.208 138.743 216.096 141.995 221.071 146.349C221.689 146.891 222.684 146.534 222.704 145.673C222.793 142.128 219.967 139.374 217.295 137.474C213.455 134.739 208.895 132.98 204.411 131.628C199.365 130.104 194.135 129.123 188.88 128.734C184.504 128.415 179.822 128.415 175.606 129.786C172.513 130.793 169.585 132.82 169.286 136.314C169.254 136.684 169.26 137.06 169.292 137.43C169.394 138.647 171.307 138.66 171.205 137.43C171.174 137.085 171.174 136.741 171.193 136.397C171.199 136.314 171.205 136.231 171.218 136.148C171.193 136.384 171.225 136.116 171.231 136.085C171.263 135.906 171.307 135.721 171.358 135.543C171.403 135.396 171.454 135.249 171.505 135.103C171.601 134.86 171.422 135.281 171.531 135.045C171.563 134.975 171.594 134.905 171.633 134.841C171.709 134.707 171.779 134.574 171.862 134.44C171.907 134.376 171.945 134.312 171.99 134.248C172.13 134.038 171.977 134.248 172.073 134.134C172.538 133.56 172.991 133.184 173.47 132.871C174.101 132.451 174.828 132.106 175.402 131.883C179.191 130.436 183.42 130.359 187.444 130.557C192.368 130.799 197.267 131.641 202.025 132.929C206.458 134.127 210.878 135.708 214.814 138.118C216.51 139.158 218.054 140.299 219.329 141.861C220.222 142.951 220.828 144.322 220.796 145.673C221.339 145.45 221.887 145.221 222.429 144.997C217.945 141.07 212.76 137.921 206.968 136.384C202.408 135.173 197.662 135.007 193 135.632C189.103 136.155 185.321 137.2 181.564 138.348C180.084 138.8 178.604 139.266 177.099 139.636C175.874 139.935 175.064 140.114 173.833 140.076C173.081 140.05 172.417 139.744 172.086 139.164C171.875 138.794 171.92 138.902 171.818 138.565C171.735 138.284 171.665 137.997 171.614 137.704C171.607 137.647 171.588 137.519 171.569 137.309C171.55 137.105 171.537 136.907 171.531 136.703C171.518 136.244 171.524 135.785 171.55 135.326C171.614 134.089 169.7 134.095 169.636 135.319Z" fill="#6024E0"/>
</g>
</g>
<path id="ojo_x5F_izquierdo_1_" d="M110.822 165.08C110.982 176.212 93.4926 176.212 93.6585 165.08C93.4926 153.949 110.982 153.949 110.822 165.08Z" stroke="#6024E0" stroke-width="5" stroke-miterlimit="10"/>
<path id="ojo_x5F_derecho_1_" d="M207.542 165.08C207.702 176.212 190.213 176.212 190.378 165.08C190.219 153.949 207.708 153.949 207.542 165.08Z" stroke="#6024E0" stroke-width="5" stroke-miterlimit="10"/>
<g id="Group_39">
<g id="Group_40">
<path id="Vector_31" d="M109.642 294.139C107.825 301.917 105.484 309.574 102.62 317.04C101.912 318.882 101.178 320.718 100.407 322.535C100.069 323.339 99.7242 324.136 99.367 324.932C99.2139 325.283 98.9843 325.64 98.9652 326.029C98.9397 326.443 99.0864 326.928 99.1501 327.342C99.6094 330.154 100.502 332.876 101.74 335.439C106.715 345.761 116.965 352.621 127.227 356.963C132.534 359.207 138.058 360.673 143.6 362.178C149.558 363.797 155.84 363.957 161.861 362.586C173.782 359.87 183.764 351.563 190.563 341.643C194.033 336.58 196.757 330.983 198.562 325.117C198.836 324.231 198.536 323.364 198.364 322.478C198.154 321.394 197.943 320.31 197.733 319.226C197.318 317.11 196.91 314.993 196.495 312.87C195.685 308.688 194.869 304.499 194.059 300.317C193.657 298.251 193.255 296.185 192.853 294.12C192.617 292.915 190.774 293.425 191.01 294.63C192.598 302.79 194.18 310.957 195.768 319.118C195.947 320.049 196.132 320.98 196.31 321.911C196.476 322.752 196.942 323.906 196.687 324.728C196.253 326.125 195.762 327.508 195.226 328.873C194.129 331.652 192.802 334.343 191.297 336.925C185.448 346.953 176.474 355.764 165.337 359.609C159.839 361.509 153.927 362.121 148.173 361.215C145.208 360.75 142.35 359.813 139.442 359.073C136.833 358.41 134.262 357.613 131.73 356.701C121.589 353.023 111.262 347.119 105.28 337.856C103.806 335.58 102.633 333.119 101.848 330.524C101.465 329.255 101.166 327.954 100.962 326.641C100.885 326.15 100.853 326.29 101.076 325.787C101.261 325.372 101.44 324.952 101.625 324.537C101.988 323.696 102.346 322.848 102.696 321.993C105.701 314.744 108.22 307.298 110.229 299.711C110.676 298.034 111.09 296.351 111.486 294.662C111.773 293.45 109.923 292.94 109.642 294.139Z" fill="#6024E0"/>
</g>
</g>
<g id="Group_41">
<g id="Group_42">
<path id="Vector_32" d="M143.32 327.559C149.373 330.186 155.961 328.566 162.027 326.858C163.213 326.526 162.71 324.677 161.517 325.015C156.044 326.558 149.781 328.299 144.283 325.914C143.167 325.417 142.191 327.068 143.32 327.559Z" fill="#6024E0"/>
</g>
</g>
<g id="Group_43">
<g id="Group_44">
<path id="Vector_33" d="M98.321 325.296C90.6479 327.094 82.8601 328.343 75.0977 329.644C66.9909 331.002 58.8714 332.379 50.8731 334.304C43.1809 336.16 35.5525 338.525 28.4343 342.025C21.7244 345.328 15.4865 349.746 10.6836 355.516C5.45983 361.789 2.14951 369.369 0.586834 377.352C0.363595 378.48 0.178625 379.609 0.0191686 380.743C-0.0509923 381.26 0.146734 381.763 0.688886 381.923C1.13536 382.05 1.79233 381.763 1.86887 381.253C3.01695 373.137 5.74047 365.283 10.639 358.652C15.0081 352.742 20.9144 348.171 27.3628 344.722C34.1939 341.075 41.6055 338.627 49.0872 336.714C56.9643 334.7 64.9754 333.272 72.9865 331.926C80.717 330.619 88.4793 329.414 96.146 327.744C97.0453 327.546 97.951 327.342 98.844 327.132C100.03 326.864 99.5265 325.015 98.321 325.296Z" fill="#6024E0"/>
</g>
</g>
<g id="Group_45">
<g id="Group_46">
<path id="Vector_34" d="M198.606 326.794C207.262 329.478 216.204 331.091 225.153 332.417C234.044 333.737 242.986 334.763 251.846 336.294C260.004 337.703 268.2 339.513 275.854 342.746C283.055 345.787 289.637 350.192 294.644 356.242C300.557 363.383 303.81 372.296 305.481 381.324C305.736 382.701 305.953 384.078 306.144 385.468C306.214 385.984 306.871 386.252 307.324 386.137C307.879 385.99 308.064 385.468 307.994 384.958C306.673 375.324 303.816 365.685 298.139 357.677C293.464 351.091 287.098 346.01 279.859 342.478C272.333 338.805 264.162 336.676 255.966 335.108C247.132 333.418 238.19 332.36 229.286 331.098C220.216 329.816 211.14 328.356 202.306 325.889C201.241 325.589 200.175 325.277 199.123 324.952C197.937 324.582 197.433 326.431 198.606 326.794Z" fill="#6024E0"/>
</g>
</g>
<g id="Group_47">
<g id="Group_48">
<path id="Vector_35" d="M191.756 181.146C196.527 180.783 201.311 180.764 206.082 181.089C207.313 181.172 207.306 179.259 206.082 179.176C201.311 178.851 196.527 178.87 191.756 179.234C190.532 179.323 190.525 181.236 191.756 181.146Z" fill="#6024E0"/>
</g>
</g>
<g id="Group_49">
<g id="Group_50">
<path id="Vector_36" d="M93.7031 182.874C98.372 182.638 103.047 182.594 107.716 182.74C108.947 182.778 108.947 180.866 107.716 180.828C103.047 180.681 98.372 180.726 93.7031 180.961C92.4785 181.019 92.4721 182.932 93.7031 182.874Z" fill="#6024E0"/>
</g>
</g>
<g id="Group_51">
<g id="Group_52">
<path id="Vector_37" d="M64.446 90.6401C62.8323 82.2882 63.0811 73.6558 65.0392 65.3805C66.9973 57.1434 70.5628 49.3589 75.2125 42.2949C79.9643 35.0842 85.8451 28.6386 92.4466 23.0792C99.1055 17.4688 106.543 12.7573 114.471 9.14877C122.144 5.65501 130.378 3.18771 138.766 2.19951C139.767 2.07837 140.775 1.98274 141.782 1.90623C141.559 1.36432 141.33 0.816029 141.106 0.274113C138.466 2.51828 135.825 4.76882 133.185 7.01299C132.387 7.68879 133.268 8.76625 134.116 8.61323C144.308 6.76435 154.781 6.48383 165.063 7.77167C167.997 8.13507 170.912 8.65149 173.801 9.26991C173.801 8.65786 173.801 8.03944 173.801 7.4274C171.728 8.16058 169.655 8.89376 167.589 9.62694C166.619 9.97121 166.709 11.5396 167.844 11.5077C179.899 11.1762 191.96 12.9677 203.409 16.7675C206.675 17.8513 209.883 19.0945 213.021 20.4971C214.138 20.9944 215.113 19.3495 213.984 18.8459C202.74 13.8284 190.685 10.749 178.394 9.83733C174.879 9.57593 171.359 9.49943 167.838 9.59506C167.921 10.2199 168.01 10.8447 168.093 11.4758C170.166 10.7426 172.239 10.0095 174.305 9.27628C175.128 8.98301 175.294 7.64416 174.305 7.43377C163.909 5.1896 153.187 4.52656 142.593 5.53388C139.582 5.82078 136.578 6.23518 133.599 6.7771C133.912 7.31264 134.218 7.8418 134.53 8.37734C137.171 6.13318 139.812 3.88263 142.452 1.63846C143.071 1.11568 142.586 -0.0574115 141.776 0.00634326C133.159 0.669393 124.708 2.81155 116.729 6.10767C108.494 9.5058 100.777 14.0579 93.7605 19.5599C86.7317 25.0683 80.4618 31.5522 75.2827 38.8266C70.2566 45.8906 66.2893 53.758 63.9166 62.1098C61.5439 70.4745 60.8678 79.2599 62.0542 87.8731C62.2073 88.9697 62.3922 90.0599 62.5963 91.1501C62.8387 92.3551 64.682 91.8451 64.446 90.6401Z" fill="#6024E0"/>
</g>
</g>
<g id="Group_53">
<g id="Group_54">
<path id="Vector_38" d="M212.926 20.5991C223.807 24.7623 232.851 32.4256 241.194 40.3567C241.507 39.8212 241.813 39.292 242.125 38.7565C235.575 36.3848 228.89 34.3957 222.104 32.7954C221.077 32.5532 220.382 34.0068 221.364 34.5423C232.06 40.3504 240.671 49.3398 247.126 59.5724C248.969 62.4988 250.647 65.5335 252.171 68.6383C252.528 68.1729 252.892 67.7011 253.249 67.2357C248.389 66.1073 243.541 64.9278 238.707 63.691C237.743 63.4487 237.157 64.5835 237.775 65.2912C238.879 66.5472 239.982 67.7968 241.079 69.0527C241.896 69.9772 243.241 68.6192 242.431 67.7012C241.328 66.4452 240.225 65.1956 239.127 63.9396C238.815 64.4752 238.509 65.0043 238.196 65.5399C243.031 66.7767 247.878 67.9562 252.739 69.0846C253.587 69.2823 254.187 68.428 253.817 67.682C248.395 56.6078 240.894 46.3242 231.129 38.6991C228.355 36.5315 225.421 34.5806 222.327 32.9038C222.078 33.484 221.836 34.0705 221.587 34.6507C228.367 36.2509 235.052 38.2401 241.609 40.6118C242.521 40.9433 243.203 39.6491 242.54 39.0115C235.83 32.636 228.737 26.4837 220.567 22.0464C218.264 20.7968 215.879 19.7002 213.429 18.763C212.288 18.3167 211.79 20.1656 212.926 20.5991Z" fill="#6024E0"/>
</g>
</g>
</g>
</g>
<defs>
<clipPath id="clip0_227_75">
<rect width="308" height="423" fill="white"/>
</clipPath>
</defs>
</svg>
